<?xml version="1.0" encoding="UTF-8"?>
<!-- Generator: Adobe Illustrator 26.0.1, SVG Export Plug-In . SVG Version: 6.00 Build 0)  -->
<svg xmlns:cc="http://creativecommons.org/ns#" xmlns:dc="http://purl.org/dc/elements/1.1/" xmlns:rdf="http://www.w3.org/1999/02/22-rdf-syntax-ns#" xmlns:svg="http://www.w3.org/2000/svg" xmlns="http://www.w3.org/2000/svg" xmlns:xlink="http://www.w3.org/1999/xlink" version="1.1" id="svg2" x="0px" y="0px" viewBox="0 0 3393.4 1533.9" style="enable-background:new 0 0 3393.4 1533.9;" xml:space="preserve">
<style type="text/css">
	.st0{clip-path:url(#SVGID_00000152230524857402230280000006362567319121100962_);}
	.st1{fill:#79208D;}
	.st2{fill:#50A9E2;}
</style>
<g id="g10" transform="matrix(1.3333333,0,0,-1.3333333,0,1440)">
	<g id="g12">
		<g>
			<defs>
				<rect id="SVGID_1_" x="-424.2" y="-262.2" width="3393.4" height="1533.9"></rect>
			</defs>
			<clipPath id="SVGID_00000023999576556777564520000018310103383854675873_">
				<use xlink:href="#SVGID_1_" style="overflow:visible;"></use>
			</clipPath>
			<g id="g14" style="clip-path:url(#SVGID_00000023999576556777564520000018310103383854675873_);">
				<g id="g20" transform="translate(494.2631,622.327)">
					<path id="path22" class="st1" d="M627.7,172.2c-16.9,0-30.9-6-42.1-17.9c-11.2-12-16.8-27.3-16.8-46c0-18.8,5.7-34.3,17.1-46.5       c11.4-12.1,25.4-18.2,42-18.2c17.2,0,31.4,6,42.7,17.9c11.3,11.9,17,27.6,17,47c0,19-5.7,34.3-17,46.1       C659.3,166.3,645,172.2,627.7,172.2 M685.2,217h54.7V-0.9h-54.7v23C674.5,12,663.8,4.7,653.1,0.2c-10.7-4.5-22.4-6.7-34.9-6.7       c-28.1,0-52.5,10.9-73,32.7c-20.5,21.8-30.8,49-30.8,81.4c0,33.6,9.9,61.2,29.8,82.7c19.9,21.5,44,32.2,72.4,32.2       c13.1,0,25.3-2.5,36.8-7.4c11.5-4.9,22.1-12.4,31.8-22.2V217z"></path>
				</g>
				<g id="g24" transform="translate(542.4311,635.2335)">
					<path id="path26" class="st1" d="M747,204.1h54.7v-22.3c12.4,10.4,23.6,17.7,33.7,21.8c10.1,4.1,20.4,6.1,30.9,6.1       c21.6,0,39.9-7.5,55-22.6c12.7-12.8,19-31.8,19-56.9v-144h-54.1v95.4c0,26-1.2,43.3-3.5,51.8c-2.3,8.5-6.4,15-12.2,19.5       c-5.8,4.5-13,6.7-21.5,6.7c-11.1,0-20.6-3.7-28.5-11.1c-7.9-7.4-13.4-17.6-16.5-30.7c-1.6-6.8-2.4-21.5-2.4-44.2v-87.4H747       V204.1z"></path>
				</g>
				<g id="g28" transform="translate(613.3575,659.4326)">
					<path id="path30" class="st1" d="M922.5,264h54.7V90.1l80.5,89.8h68.7l-93.9-104.4L1137.6-38h-67.9L977.2,62.5V-38h-54.7V264z"></path>
				</g>
				<g id="g32" transform="translate(681.636,635.2335)">
					<path id="path34" class="st1" d="M1091.6,204.1h55.3V99.2c0-20.4,1.4-34.6,4.2-42.5c2.8-7.9,7.3-14.1,13.6-18.5       c6.2-4.4,13.9-6.6,23-6.6c9.1,0,16.8,2.2,23.2,6.5c6.4,4.3,11.1,10.7,14.2,19.1c2.3,6.3,3.4,19.7,3.4,40.3v106.7h54.7v-92.3       c0-38-3-64.1-9-78.1c-7.3-17.1-18.2-30.2-32.4-39.4c-14.3-9.1-32.4-13.7-54.5-13.7c-23.9,0-43.2,5.3-58,16       c-14.8,10.7-25.1,25.6-31.1,44.7c-4.3,13.2-6.4,37.3-6.4,72.1V204.1z"></path>
				</g>
				<g id="g36" transform="translate(748.8165,635.2335)">
					<path id="path38" class="st1" d="M1257.9,204.1h46.9v-27.4c5.1,10.8,11.8,19,20.2,24.6c8.4,5.6,17.6,8.4,27.6,8.4       c7.1,0,14.5-1.9,22.2-5.6l-17-47.1c-6.4,3.2-11.7,4.8-15.8,4.8c-8.4,0-15.5-5.2-21.3-15.6c-5.8-10.4-8.7-30.8-8.7-61.3       l0.2-10.6v-88.1h-54.3V204.1z"></path>
				</g>
				<g id="g40" transform="translate(819.975,622.327)">
					<path id="path42" class="st1" d="M1434.1,172.2c-16.9,0-30.9-6-42.1-17.9c-11.2-12-16.8-27.3-16.8-46       c0-18.8,5.7-34.3,17.1-46.5c11.4-12.1,25.4-18.2,42-18.2c17.2,0,31.4,6,42.7,17.9s17,27.6,17,47c0,19-5.7,34.3-17,46.1       C1465.7,166.3,1451.4,172.2,1434.1,172.2 M1491.5,217h54.7V-0.9h-54.7v23c-10.7-10.1-21.4-17.5-32.1-21.9       c-10.7-4.5-22.4-6.7-34.9-6.7c-28.1,0-52.5,10.9-73,32.7c-20.5,21.8-30.8,49-30.8,81.4c0,33.6,9.9,61.2,29.8,82.7       c19.9,21.5,44,32.2,72.4,32.2c13.1,0,25.3-2.5,36.8-7.4c11.5-4.9,22.1-12.4,31.8-22.2V217z"></path>
				</g>
				<g id="g44" transform="translate(461.6512,564.4841)">
					<path id="path46" class="st1" d="M547,29h49.1v-96c9.7,8.3,19.4,14.6,29.2,18.8c9.8,4.2,19.7,6.2,29.7,6.2       c19.6,0,36.1-6.8,49.5-20.3c11.5-11.7,17.2-28.9,17.2-51.6v-130.3h-48.7v86.4c0,22.8-1.1,38.3-3.3,46.4       c-2.2,8.1-5.9,14.1-11.1,18.1c-5.3,4-11.7,6-19.5,6c-10,0-18.6-3.3-25.8-10C606-104,601-113,598.2-124.5       c-1.4-5.9-2.2-19.4-2.2-40.6v-79.2H547V29z"></path>
				</g>
				<g id="g48" transform="translate(552.5465,530.6495)">
					<path id="path50" class="st1" d="M772-54.8c-15.4,0-28.2-5.3-38.4-16c-10.2-10.7-15.3-24.4-15.3-41c0-17.2,5-31,15.2-41.7       c10.1-10.6,22.9-15.9,38.4-15.9c15.5,0,28.4,5.4,38.7,16.1c10.3,10.8,15.4,24.6,15.4,41.5c0,16.9-5.1,30.7-15.2,41.2       C800.6-60.1,787.7-54.8,772-54.8 M771.2-8.2c18.6,0,36.1-4.7,52.5-14c16.4-9.3,29.1-21.9,38.3-37.9c9.2-16,13.8-33.2,13.8-51.6       c0-18.6-4.6-36-13.9-52.2c-9.2-16.2-21.8-28.8-37.8-38c-16-9.1-33.5-13.7-52.7-13.7c-28.3,0-52.4,10.1-72.4,30.2       c-20,20.1-30,44.5-30,73.3c0,30.8,11.3,56.5,33.9,77C722.7-17.2,745.5-8.2,771.2-8.2"></path>
				</g>
				<g id="g52" transform="translate(628.7409,534.6643)">
					<path id="path54" class="st1" d="M960.6-44.9L930-75.5C917.6-63.2,906.3-57,896.1-57c-5.6,0-9.9-1.2-13-3.5       c-3.1-2.4-4.7-5.3-4.7-8.8c0-2.7,1-5.1,3-7.3c2-2.2,6.9-5.3,14.8-9.2l18.1-9.1c19.1-9.4,32.2-19,39.3-28.8       c7.1-9.8,10.7-21.3,10.7-34.4c0-17.5-6.4-32.1-19.3-43.9c-12.9-11.7-30.1-17.6-51.7-17.6c-28.8,0-51.7,11.2-68.9,33.7       l30.5,33.2c5.8-6.8,12.6-12.2,20.4-16.4c7.8-4.2,14.7-6.2,20.7-6.2c6.5,0,11.8,1.6,15.8,4.7c4,3.1,6,6.8,6,10.9       c0,7.6-7.2,15-21.6,22.3l-16.7,8.3c-31.9,16.1-47.8,36.2-47.8,60.3c0,15.6,6,28.9,18,40c12,11.1,27.4,16.6,46.1,16.6       c12.8,0,24.9-2.8,36.2-8.4C943.2-26.3,952.8-34.4,960.6-44.9"></path>
				</g>
				<g id="g56" transform="translate(670.084,530.9105)">
					<path id="path58" class="st1" d="M1063-54.2c-15.6,0-28.5-5.3-38.8-15.9c-10.3-10.6-15.4-24.5-15.4-41.7       c0-17.5,5.1-31.7,15.4-42.5c10.3-10.8,23.2-16.2,38.8-16.2c15.1,0,27.8,5.5,38.1,16.5c10.3,11,15.5,25,15.5,42       c0,16.9-5.1,30.8-15.2,41.6C1091.3-59.6,1078.4-54.2,1063-54.2 M1011-13.6v-21.7c8.9,8.9,18.6,15.6,29,20.1       c10.4,4.5,21.5,6.7,33.3,6.7c25.7,0,47.6-9.7,65.6-29.2c18-19.5,27-44.4,27-74.8c0-29.4-9.3-53.9-27.9-73.7       c-18.6-19.7-40.7-29.6-66.1-29.6c-11.4,0-21.9,2-31.7,6.1c-9.8,4-19.5,10.7-29.2,19.8v-93h-49.1v269.3L1011-13.6z"></path>
				</g>
				<path id="path60" class="st1" d="M1871.5,517.3h49.5V320.2h-49.5V517.3z M1896.2,598.5c8.7,0,16.1-3.1,22.3-9.4      c6.2-6.3,9.3-13.9,9.3-22.8c0-8.8-3.1-16.3-9.2-22.6c-6.1-6.2-13.5-9.3-22-9.3c-8.8,0-16.3,3.2-22.5,9.5      c-6.2,6.3-9.3,14-9.3,23.1c0,8.7,3.1,16.1,9.2,22.3C1880.2,595.4,1887.6,598.5,1896.2,598.5"></path>
				<g id="g62" transform="translate(738.7971,563.4944)">
					<path id="path64" class="st1" d="M1233.1,26.5h49.5v-72.7h29.4v-42.6h-29.4v-154.6h-49.5v154.6h-25.4v42.6h25.4V26.5z"></path>
				</g>
				<g id="g66" transform="translate(795.9879,530.9105)">
					<path id="path68" class="st1" d="M1374.7-54.2c-15.3,0-28-5.4-38.1-16.2c-10.1-10.8-15.2-24.7-15.2-41.6c0-17,5.1-31.1,15.4-42       c10.3-11,23-16.5,38-16.5c15.5,0,28.4,5.4,38.7,16.2c10.2,10.8,15.4,25,15.4,42.5c0,17.2-5.1,31-15.4,41.7       C1403.3-59.5,1390.3-54.2,1374.7-54.2 M1426.7-13.6h49.5v-197.2h-49.5v20.8c-9.7-9.2-19.3-15.8-29.1-19.8       c-9.7-4-20.2-6.1-31.6-6.1c-25.5,0-47.5,9.9-66.1,29.6c-18.6,19.8-27.9,44.3-27.9,73.7c0,30.4,9,55.4,27,74.8       c18,19.5,39.8,29.2,65.5,29.2c11.8,0,22.9-2.2,33.3-6.7c10.4-4.5,20-11.2,28.8-20.1V-13.6z"></path>
				</g>
				<path id="path70" class="st1" d="M2316.7,593.5h49.5V320.2h-49.5V593.5z"></path>
				<g id="g72" transform="translate(461.6512,441.4911)">
					<path id="path74" class="st2" d="M547-275.5h6.3c0,9.2,0.2,14.7,0.5,16.3c0.5,3.9,2.1,7,4.9,9.2c2.8,2.3,6.7,3.4,11.8,3.4       c3.7,0,7.8-0.8,12.4-2.5v-13.4c-2.5,0.7-4.6,1.1-6.3,1.1c-2.1,0-3.6-0.4-4.5-1.3c-0.7-0.6-1-2-1-4l-0.1-8.8h11.2v-14.9h-11.2       v-55.4h-17.7v55.4H547V-275.5z"></path>
				</g>
				<g id="g76" transform="translate(484.3135,437.2318)">
					<path id="path78" class="st2" d="M603.1-286.1c-5.5,0-10-1.9-13.7-5.7c-3.6-3.8-5.5-8.7-5.5-14.6c0-6.1,1.8-11.1,5.4-14.9       c3.6-3.8,8.2-5.7,13.7-5.7c5.5,0,10.1,1.9,13.8,5.8c3.7,3.8,5.5,8.8,5.5,14.8c0,6-1.8,10.9-5.4,14.7       C613.3-288,608.7-286.1,603.1-286.1 M602.8-269.5c6.6,0,12.9-1.7,18.7-5c5.8-3.3,10.4-7.8,13.7-13.5c3.3-5.7,4.9-11.8,4.9-18.4       c0-6.6-1.6-12.8-4.9-18.6c-3.3-5.8-7.8-10.3-13.5-13.5c-5.7-3.3-12-4.9-18.8-4.9c-10.1,0-18.7,3.6-25.8,10.8       c-7.1,7.2-10.7,15.9-10.7,26.1c0,11,4,20.2,12.1,27.5C585.5-272.6,593.6-269.5,602.8-269.5"></path>
				</g>
				<g id="g80" transform="translate(497.92,441.4911)">
					<path id="path82" class="st2" d="M636.8-275.5h15.1v-8.9c1.6,3.5,3.8,6.1,6.5,8c2.7,1.8,5.7,2.7,8.9,2.7c2.3,0,4.7-0.6,7.2-1.8       l-5.5-15.2c-2.1,1-3.8,1.6-5.1,1.6c-2.7,0-5-1.7-6.9-5c-1.9-3.4-2.8-10-2.8-19.8l0.1-3.4v-28.4h-17.5V-275.5z"></path>
				</g>
				<g id="g84" transform="translate(519.7095,441.4911)">
					<path id="path86" class="st2" d="M690.7-275.5H708l14.1-40l15.2,40h10.6l14.9-39.6l14.2,39.6h17.4l-25.7-70.3h-11.2l-15,40.1       l-15.4-40.1H716L690.7-275.5z"></path>
				</g>
				<g id="g88" transform="translate(562.0038,437.2318)">
					<path id="path90" class="st2" d="M795.4-286.1c-5.5,0-10-1.9-13.7-5.7c-3.6-3.8-5.5-8.7-5.5-14.6c0-6.1,1.8-11.1,5.4-14.9       c3.6-3.8,8.2-5.7,13.7-5.7c5.5,0,10.1,1.9,13.8,5.8c3.7,3.8,5.5,8.8,5.5,14.8c0,6-1.8,10.9-5.4,14.7       C805.6-288,801-286.1,795.4-286.1 M795.1-269.5c6.6,0,12.9-1.7,18.7-5c5.8-3.3,10.4-7.8,13.7-13.5c3.3-5.7,4.9-11.8,4.9-18.4       c0-6.6-1.7-12.8-4.9-18.6c-3.3-5.8-7.8-10.3-13.5-13.5c-5.7-3.3-12-4.9-18.8-4.9c-10.1,0-18.7,3.6-25.8,10.8       c-7.1,7.2-10.7,15.9-10.7,26.1c0,11,4,20.2,12.1,27.5C777.8-272.6,785.9-269.5,795.1-269.5"></path>
				</g>
				<g id="g92" transform="translate(576.7624,441.4911)">
					<path id="path94" class="st2" d="M831.9-275.5h17.6v-8.1c3,3.3,6.4,5.8,10.1,7.4c3.7,1.6,7.7,2.5,12.1,2.5       c4.4,0,8.4-1.1,11.9-3.2c3.5-2.2,6.4-5.3,8.5-9.4c2.8,4.1,6.2,7.3,10.3,9.4c4.1,2.2,8.5,3.2,13.4,3.2c5,0,9.4-1.2,13.2-3.5       c3.8-2.3,6.5-5.4,8.2-9.1c1.7-3.7,2.5-9.8,2.5-18.3v-41.2h-17.8v35.7c0,8-1,13.4-3,16.2c-2,2.8-5,4.2-8.9,4.2       c-3,0-5.7-0.9-8.1-2.6c-2.4-1.7-4.2-4.1-5.3-7.1s-1.7-7.9-1.7-14.6v-31.7h-17.8v34.1c0,6.3-0.5,10.8-1.4,13.7       c-0.9,2.8-2.3,4.9-4.2,6.3c-1.9,1.4-4.1,2.1-6.7,2.1c-2.9,0-5.6-0.9-8-2.6c-2.4-1.7-4.2-4.2-5.4-7.3c-1.2-3.1-1.8-8.1-1.8-14.9       v-31.3h-17.6V-275.5z"></path>
				</g>
				<g id="g96" transform="translate(627.8002,433.9031)">
					<path id="path98" class="st2" d="M958.3-294.3c-1.2,3.9-3.5,7.1-6.9,9.6c-3.4,2.5-7.4,3.7-11.9,3.7c-4.9,0-9.2-1.4-13-4.1       c-2.3-1.7-4.5-4.8-6.5-9.1H958.3z M976-308.2h-56.7c0.8-5,3-9,6.6-11.9c3.6-3,8.1-4.4,13.6-4.4c6.6,0,12.3,2.3,17,6.9l14.9-7       c-3.7-5.3-8.2-9.2-13.3-11.7c-5.2-2.5-11.3-3.8-18.4-3.8c-11,0-20,3.5-27,10.4c-6.9,7-10.4,15.7-10.4,26.1       c0,10.7,3.5,19.6,10.4,26.7c6.9,7.1,15.6,10.6,26,10.6c11.1,0,20.1-3.5,27-10.6c6.9-7.1,10.4-16.5,10.4-28.1L976-308.2z"></path>
				</g>
				<g id="g100" transform="translate(636.9886,441.4911)">
					<path id="path102" class="st2" d="M981.1-275.5h17.6v-7.2c4,3.4,7.6,5.7,10.9,7s6.6,2,10,2c7,0,12.9-2.4,17.7-7.3       c4.1-4.1,6.1-10.3,6.1-18.4v-46.5H1026v30.8c0,8.4-0.4,14-1.1,16.7c-0.8,2.8-2.1,4.8-3.9,6.3c-1.9,1.4-4.2,2.2-6.9,2.2       c-3.6,0-6.6-1.2-9.2-3.6c-2.6-2.4-4.3-5.7-5.3-9.9c-0.5-2.2-0.8-7-0.8-14.3v-28.2h-17.6V-275.5z"></path>
				</g>
				<g id="g104" transform="translate(678.316,438.0314)">
					<path id="path106" class="st2" d="M1083.4-284.1c4.8,4.1,7.2,7.7,7.2,10.9c0,1.6-0.5,3-1.6,4c-1.1,1-2.5,1.6-4.3,1.6       c-1.6,0-3-0.6-4.2-1.7c-1.1-1.2-1.7-2.5-1.7-4.1C1078.8-276.6,1080.3-280.1,1083.4-284.1 M1094.1-323.4       c-3.3,3.3-8,8.7-14.1,16.3c-6.4-5.3-9.6-9.9-9.6-13.9c0-1.9,0.9-3.6,2.6-5.1c1.7-1.5,3.9-2.3,6.6-2.3       C1083.6-328.4,1088.4-326.7,1094.1-323.4 M1117.8-305l10.8-12.4l-4.9-4.5l-4.8-4.4l15.3-16.2h-21.9l-6.3,6.5       c-10-5.9-19.3-8.9-27.9-8.9c-7.3,0-13.2,2.1-17.7,6.4c-4.5,4.3-6.8,9.7-6.8,16.4c0,5,1.3,9.8,3.8,14.3       c2.5,4.5,6.9,9.1,13.1,13.9c-6.1,8.2-9.2,15.5-9.2,21.9c0,4.7,2,9.3,6.1,13.9c4.1,4.6,9.8,6.9,17.1,6.9       c7.5,0,13.2-2.3,17.2-6.8c4-4.5,6-9.1,6-13.7c0-3.6-0.9-7.1-2.7-10.4c-1.8-3.3-6-8.2-12.6-14.7c7.7-9.1,12.7-14.8,14.9-17       C1108.6-312.8,1112.1-309.9,1117.8-305"></path>
				</g>
				<g id="g108" transform="translate(726.8802,437.3986)">
					<path id="path110" class="st2" d="M1203.6-285.7l-14.7-8.1c-2.8,2.9-5.5,4.9-8.2,6c-2.7,1.1-5.9,1.7-9.5,1.7       c-6.6,0-11.9-2-16-5.9c-4.1-3.9-6.1-9-6.1-15.1c0-6,2-10.9,5.9-14.7c3.9-3.8,9.1-5.7,15.5-5.7c7.9,0,14,2.7,18.5,8.1l13.9-9.5       c-7.5-9.8-18.2-14.7-31.9-14.7c-12.4,0-22,3.7-29.1,11c-7,7.3-10.5,15.9-10.5,25.7c0,6.8,1.7,13.1,5.1,18.8       c3.4,5.7,8.2,10.2,14.3,13.5c6.1,3.3,12.9,4.9,20.5,4.9c7,0,13.3-1.4,18.8-4.2C1195.5-276.6,1200.1-280.5,1203.6-285.7"></path>
				</g>
				<g id="g112" transform="translate(731.4727,449.3033)">
					<path id="path114" class="st2" d="M1215-256.2h17.5v-34.3c3.5,3,6.9,5.2,10.4,6.7c3.5,1.5,7,2.2,10.6,2.2       c7,0,12.9-2.4,17.6-7.2c4.1-4.2,6.1-10.3,6.1-18.4v-46.5h-17.4v30.8c0,8.2-0.4,13.7-1.2,16.6c-0.8,2.9-2.1,5-4,6.5       c-1.9,1.4-4.2,2.1-6.9,2.1c-3.6,0-6.6-1.2-9.2-3.6c-2.6-2.4-4.3-5.6-5.3-9.7c-0.5-2.1-0.8-6.9-0.8-14.5v-28.2H1215V-256.2z"></path>
				</g>
				<path id="path116" class="st2" d="M2023.9,166h17.6V95.6h-17.6V166z M2032.7,194.9c3.1,0,5.8-1.1,8-3.4c2.2-2.2,3.3-5,3.3-8.2      c0-3.1-1.1-5.8-3.3-8c-2.2-2.2-4.8-3.3-7.9-3.3c-3.1,0-5.8,1.1-8,3.4c-2.2,2.3-3.3,5-3.3,8.2c0,3.1,1.1,5.8,3.3,8      C2027,193.8,2029.6,194.9,2032.7,194.9"></path>
				<path id="path118" class="st2" d="M2055.6,193.1h17.6V95.6h-17.6V193.1z"></path>
				<g id="g120" transform="translate(782.1755,437.3244)">
					<path id="path122" class="st2" d="M1340.5-285.8c-5.5,0-10-1.9-13.6-5.8c-3.6-3.9-5.4-8.8-5.4-14.8c0-6.1,1.8-11.1,5.5-15       c3.7-3.9,8.2-5.9,13.6-5.9c5.5,0,10.1,1.9,13.8,5.8c3.6,3.9,5.5,8.9,5.5,15.2c0,6.1-1.8,11.1-5.5,14.9       C1350.7-287.7,1346.1-285.8,1340.5-285.8 M1359.1-244.2h17.6v-97.5h-17.6v7.4c-3.4-3.3-6.9-5.6-10.4-7.1       c-3.5-1.4-7.2-2.2-11.3-2.2c-9.1,0-16.9,3.5-23.6,10.6c-6.6,7.1-9.9,15.8-9.9,26.3c0,10.9,3.2,19.8,9.6,26.7       c6.4,6.9,14.2,10.4,23.4,10.4c4.2,0,8.2-0.8,11.9-2.4c3.7-1.6,7.1-4,10.3-7.2V-244.2z"></path>
				</g>
				<g id="g124" transform="translate(796.5343,441.4911)">
					<path id="path126" class="st2" d="M1376-275.5h15.1v-8.9c1.6,3.5,3.8,6.1,6.5,8c2.7,1.8,5.7,2.7,8.9,2.7c2.3,0,4.7-0.6,7.2-1.8       l-5.5-15.2c-2.1,1-3.8,1.6-5.1,1.6c-2.7,0-5-1.7-6.9-5c-1.9-3.4-2.8-10-2.8-19.8l0.1-3.4v-28.4H1376V-275.5z"></path>
				</g>
				<g id="g128" transform="translate(825.1035,433.9031)">
					<path id="path130" class="st2" d="M1446.8-294.3c-1.2,3.9-3.5,7.1-6.9,9.6c-3.4,2.5-7.4,3.7-11.9,3.7c-4.9,0-9.2-1.4-13-4.1       c-2.3-1.7-4.5-4.8-6.5-9.1H1446.8z M1464.4-308.2h-56.7c0.8-5,3-9,6.6-11.9c3.6-3,8.1-4.4,13.6-4.4c6.6,0,12.3,2.3,17,6.9       l14.9-7c-3.7-5.3-8.2-9.2-13.3-11.7c-5.2-2.5-11.3-3.8-18.4-3.8c-11,0-20,3.5-27,10.4c-6.9,7-10.4,15.7-10.4,26.1       c0,10.7,3.5,19.6,10.4,26.7c6.9,7.1,15.6,10.6,26,10.6c11.1,0,20.1-3.5,27-10.6c6.9-7.1,10.4-16.5,10.4-28.1L1464.4-308.2z"></path>
				</g>
				<g id="g132" transform="translate(834.2902,441.4911)">
					<path id="path134" class="st2" d="M1469.5-275.5h17.7v-7.2c4,3.4,7.6,5.7,10.9,7c3.2,1.3,6.6,2,10,2c7,0,12.9-2.4,17.8-7.3       c4.1-4.1,6.1-10.3,6.1-18.4v-46.5h-17.5v30.8c0,8.4-0.4,14-1.1,16.7c-0.8,2.8-2.1,4.8-3.9,6.3c-1.9,1.4-4.2,2.2-6.9,2.2       c-3.6,0-6.6-1.2-9.2-3.6c-2.6-2.4-4.3-5.7-5.3-9.9c-0.5-2.2-0.8-7-0.8-14.3v-28.2h-17.7V-275.5z"></path>
				</g>
				<g id="g136" transform="translate(389.5762,497.7837)">
					<path id="path138" class="st1" d="M368.5-136.2c0-174.9-142.3-317.3-317.3-317.3S-266-311.1-266-136.2v391.8       c72-19.6,166.6-51.9,248.6-101.2c-82.4-74.6-124.1-162.4-124.1-262c0-141.3,119.7-190.8,184.9-194.6c2.7-0.2,5.4-0.2,7.9-0.2       c2.5,0,5.2,0.1,7.9,0.2c65.3,3.7,185,53.3,185,194.6c0,99.6-41.7,187.4-124.1,262c82,49.3,176.5,81.5,248.6,101.2V-136.2z        M162.8-107.5c0-89.1-74.4-108.4-101.7-112.5c-6-0.9-14.3-0.9-21,0.2c-28.3,4.4-100.4,24.5-100.4,112.3       c0,88.8,46.2,158.8,111.6,213.5C116.6,51.3,162.8-18.7,162.8-107.5 M400,347.4c-42.7-9.9-94.5-23.9-148.8-43.2       C208,356.8,135.4,391.4,53,391.4c-82.9,0-155.8-35-199-88.2c-55.3,19.7-108.1,34.1-151.6,44.2l-49.8,11.5v-41.6v-453.5       c0-219.8,178.8-398.6,398.6-398.6c219.8,0,398.6,178.8,398.6,398.6v453.5v41.6L400,347.4z"></path>
				</g>
				<g id="g140" transform="translate(242.0853,649.5756)">
					<path id="path142" class="st1" d="M3.4,239.6c20.6,0,61.2,13.1,61.2,68.2c0,55.1-39.7,96.2-79.4,96.2       c-40.6,0-59.8-33.6-59.8-65.4C-74.6,282.1-30.7,239.6,3.4,239.6"></path>
				</g>
				<g id="g144" transform="translate(283.4808,668.6604)">
					<path id="path146" class="st1" d="M105.9,286.9c19.6,0,39.2,14,39.2,44.4c0,30.4-20.1,50.4-41.6,50.4       c-27.1,0-41.6-22-41.6-41.1C62,312.1,86.2,286.9,105.9,286.9"></path>
				</g>
				<g id="g148" transform="translate(310.7636,667.8541)">
					<path id="path150" class="st1" d="M173.4,284.9c21.5,0,40.6,18.7,40.6,50.2c0,31.5-16.3,44.1-34.6,44.1       c-18.2,0-41.6-13.5-41.6-48.6C137.9,306.8,151.9,284.9,173.4,284.9"></path>
				</g>
				<g id="g152" transform="translate(336.3008,659.2527)">
					<path id="path154" class="st1" d="M236.6,263.6c25.2,0,40.6,24.3,40.6,48.6s-18.7,35-35,35c-16.3,0-42.5-13.5-42.5-46.7       C199.7,282.7,211.4,263.6,236.6,263.6"></path>
				</g>
				<g id="g156" transform="translate(355.2502,643.5282)">
					<path id="path158" class="st1" d="M283.5,224.7c15.9,0,41.1,15.9,41.1,42.5s-23.4,27.6-31.3,27.6c-7.9,0-38.3-9.3-38.3-41.6       C255,234.5,267.7,224.7,283.5,224.7"></path>
				</g>
				<g id="g160" transform="translate(870.7744,689.4787)">
					<path id="path162" class="st1" d="M1559.8,338.4c-45.4,0-82.3-36.9-82.3-82.3c0-45.4,36.9-82.3,82.3-82.3s82.3,36.9,82.3,82.3       C1642.1,301.5,1605.2,338.4,1559.8,338.4 M1559.8,167.1c-12,0-23.7,2.4-34.6,7c-10.6,4.5-20.1,10.9-28.3,19.1       c-8.2,8.2-14.6,17.7-19.1,28.3c-4.6,11-7,22.6-7,34.6c0,12,2.4,23.7,7,34.6c4.5,10.6,10.9,20.1,19.1,28.3       c8.2,8.2,17.7,14.6,28.3,19.1c11,4.6,22.6,7,34.6,7c12,0,23.7-2.4,34.6-7c10.6-4.5,20.1-10.9,28.3-19.1       c8.2-8.2,14.6-17.7,19.1-28.3c4.6-11,7-22.6,7-34.6c0-12-2.4-23.7-7-34.6c-4.5-10.6-10.9-20.1-19.1-28.3       c-8.2-8.2-17.7-14.6-28.3-19.1C1583.5,169.5,1571.9,167.1,1559.8,167.1"></path>
				</g>
				<g id="g164" transform="translate(866.9479,666.6546)">
					<path id="path166" class="st1" d="M1550.4,281.9h14.2c14.9,0,24.3,8.2,24.3,20.5c0,13.9-10.1,20-24.8,20.2       c-6.7,0-11.5-0.6-13.8-1.3V281.9z M1536.5,331c7,1.4,17.1,2.2,26.7,2.2c14.9,0,24.5-2.7,31.2-8.8c5.4-4.8,8.5-12.2,8.5-20.5       c0-14.2-9-23.7-20.3-27.5V276c8.3-2.9,13.3-10.6,15.8-21.8c3.5-15,6.1-25.4,8.3-29.6h-14.4c-1.8,3-4.2,12.3-7.2,25.8       c-3.2,14.9-9,20.5-21.6,21h-13.1v-46.7h-13.9V331z"></path>
				</g>
			</g>
		</g>
	</g>
</g>
</svg>
