<svg width="125" height="31" viewBox="0 0 125 31" fill="none" xmlns="http://www.w3.org/2000/svg">
<g clip-path="url(#clip0_2602_15834)">
<mask id="mask0_2602_15834" style="mask-type:luminance" maskUnits="userSpaceOnUse" x="0" y="0" width="125" height="31">
<path d="M125 0H0V31H125V0Z" fill="white"/>
</mask>
<g mask="url(#mask0_2602_15834)">
<path d="M25.106 13.4522C26.7213 19.0236 16.9328 24.3952 12.978 25.5325C12.8861 25.5594 12.7929 25.5852 12.6998 25.6097C6.75707 27.2004 3.62089 22.3203 2.38309 17.6951C1.14528 13.0698 0.695503 7.00704 6.6382 5.41505C9.65428 4.60741 13.076 5.39666 15.983 6.43961C18.8422 7.46662 21.9588 8.99243 23.9846 11.4215C24.5472 12.098 24.9112 12.7769 25.106 13.4522Z" fill="#2AACEF"/>
<path d="M16.523 12.425C16.1039 10.5977 14.5879 9.41141 12.6613 9.40283C12.654 9.40283 12.6479 9.40283 12.6417 9.40283C10.975 9.40283 9.0717 10.3588 8.55207 12.5022C8.51408 12.6591 8.57536 12.8356 8.71507 12.9153C8.94302 13.0464 9.20897 12.9189 9.26534 12.6849C9.68816 10.9176 11.2728 10.1345 12.6577 10.1394C13.909 10.1455 15.3919 10.7926 15.8049 12.5905C15.8809 12.9226 15.9029 13.2547 15.8711 13.5869C15.8698 13.5869 15.8686 13.5869 15.8674 13.5869C15.8588 13.6923 15.8441 13.7989 15.8245 13.9043C15.7791 14.1335 15.7081 14.3626 15.6125 14.5918C15.55 14.7352 15.4764 14.8786 15.3894 15.0208C15.2632 15.2254 15.3612 15.5036 15.6149 15.5735C15.7706 15.6164 15.9385 15.5355 16.023 15.3982C16.3797 14.8173 16.5598 14.2229 16.6076 13.6432C16.6432 13.2388 16.6162 12.8331 16.523 12.425Z" fill="white"/>
<path d="M17.9128 12.0748C17.3343 9.5551 15.2423 7.91899 12.5841 7.90674C12.5743 7.90674 12.5657 7.90674 12.5559 7.90674C10.2494 7.90674 7.61449 9.23156 6.9049 12.1998C6.8522 12.4192 6.98823 12.641 7.20761 12.6937C7.42821 12.7464 7.6488 12.6104 7.7015 12.391C8.3106 9.84679 10.5877 8.71805 12.5816 8.72541C14.3011 8.73276 16.5206 9.66295 17.1162 12.2587C17.4924 13.8948 16.9642 15.5395 15.5475 17.1474C14.7055 18.1033 13.8697 19.0666 12.9652 19.9637C12.5498 20.3755 12.0988 20.791 11.6392 21.1696C11.3733 21.389 11.0362 21.6623 10.6771 21.7628C10.5178 21.7947 10.3168 21.8033 10.0766 21.753C9.85112 21.7052 9.62929 21.8498 9.5815 22.0753C9.5337 22.3008 9.67832 22.5227 9.90382 22.5705C10.1832 22.6293 10.4333 22.6354 10.6514 22.6109V22.6158C10.6808 22.6121 10.709 22.6048 10.7372 22.5999C10.8303 22.5852 10.9173 22.5668 10.997 22.5447C11.2556 22.4712 11.4431 22.3646 11.5485 22.2923C12.2409 21.8927 12.8145 21.2199 13.3537 20.6819C14.3207 19.7149 15.257 18.7161 16.1615 17.6903C17.7608 15.8704 18.3503 13.983 17.9128 12.0748Z" fill="white"/>
<path d="M15.3327 16.2135C15.329 16.1301 15.2959 16.0492 15.2371 15.9843C15.0839 15.8164 14.8094 15.8458 14.6623 16.0186C14.5128 16.1938 14.3596 16.3716 14.2052 16.5493C13.6194 17.2037 13.0728 17.8275 12.4428 18.4415C12.2198 18.6597 12.0151 18.8974 11.7774 19.0996C11.4465 19.3815 10.9562 19.5825 10.5163 19.4955C10.3116 19.4538 10.1118 19.5862 10.0702 19.7921C10.0285 19.9967 10.1609 20.1977 10.3667 20.2394C10.4464 20.2553 10.6229 20.286 10.8239 20.286C10.8999 20.286 10.9783 20.2811 11.0567 20.27V20.2688C11.6989 20.1732 12.1634 19.6683 12.6254 19.2344C13.2762 18.6229 13.9061 17.9868 14.5103 17.3287C14.5385 17.2981 14.5618 17.2674 14.5839 17.2368C14.7996 16.9917 15.0177 16.7417 15.2469 16.472C15.3094 16.3973 15.3376 16.3041 15.3327 16.2135Z" fill="white"/>
<path d="M14.6992 12.3884C14.6318 12.2327 14.4504 12.1617 14.2948 12.2291C14.1391 12.2965 14.068 12.4778 14.1354 12.6335C14.4075 13.2585 14.4504 13.8014 14.1416 14.3211C13.921 14.6912 13.5901 15.0552 13.4982 15.1606C13.1771 15.5246 12.8437 15.8763 12.5042 16.2231C12.2873 16.445 12.0679 16.6643 11.8449 16.8825C11.7223 17.0026 11.5753 17.1325 11.4086 17.1999C11.2811 17.2465 11.0863 17.2894 10.813 17.2771C10.6414 17.2697 10.4894 17.385 10.4723 17.5553C10.4551 17.7257 10.5801 17.8788 10.7505 17.896C11.0752 17.9291 11.34 17.8727 11.5422 17.8029C11.5593 17.7967 11.5753 17.7906 11.5924 17.7845C11.6071 17.7796 11.6218 17.7734 11.6353 17.7685C11.8571 17.6803 12.0005 17.5553 12.0251 17.5345C12.1599 17.4303 12.2861 17.3114 12.4074 17.1925C12.6452 16.9572 12.8805 16.7195 13.1133 16.4793C13.4185 16.1631 13.72 15.842 14.008 15.5099C14.2384 15.2439 14.4798 14.9706 14.6539 14.6642C14.6673 14.6409 14.6796 14.6189 14.6906 14.5956C15.0436 13.8848 15.046 13.185 14.6992 12.3884Z" fill="white"/>
<path d="M13.6588 11.305C12.8438 10.8883 11.8732 10.9851 11.1256 11.5575C10.405 12.1102 10.0312 12.9877 10.09 13.9228C10.0912 14.0257 10.1023 14.1226 10.1219 14.2145C10.1243 14.2304 10.1256 14.2463 10.128 14.261H10.1317C10.2542 14.7439 10.628 15.027 11.1513 14.9057C11.2261 14.8885 11.3915 14.8775 11.432 14.8983C11.6293 15.1753 11.9455 15.364 12.3095 15.3873C12.9541 15.429 13.5105 14.9376 13.5522 14.2941C13.5939 13.6495 13.1036 13.0919 12.459 13.0514C11.8168 13.0098 11.2604 13.4975 11.2163 14.1397C11.1207 14.2194 10.9442 14.2684 10.8474 14.2108C10.7138 14.1311 10.7016 13.9167 10.6954 13.7463C10.693 13.0674 10.9798 12.4436 11.4994 12.0452C12.0656 11.6114 12.7678 11.5391 13.3794 11.8516C13.5301 11.9288 13.7152 11.8688 13.7924 11.718C13.8696 11.5661 13.8096 11.381 13.6588 11.305Z" fill="#112F70"/>
<path d="M39.4094 7.85791C39.5515 7.85791 39.6741 7.90938 39.7783 8.01356C39.8812 8.11773 39.9339 8.24028 39.9339 8.38245V20.9296C39.9339 21.073 39.8824 21.1956 39.7783 21.2985C39.6741 21.4027 39.5515 21.4542 39.4094 21.4542H36.8639C36.7217 21.4542 36.598 21.4027 36.495 21.2985C36.3908 21.1956 36.3394 21.0718 36.3394 20.9296V16.1708H32.0267V20.9296C32.0267 21.073 31.9752 21.1956 31.871 21.2985C31.7668 21.4027 31.6443 21.4542 31.5021 21.4542H28.9591C28.8169 21.4542 28.6932 21.4052 28.5902 21.3083C28.486 21.2115 28.4346 21.0853 28.4346 20.9296V8.38245C28.4346 8.24028 28.486 8.11773 28.5902 8.01356C28.6932 7.91061 28.8169 7.85791 28.9591 7.85791H31.5033C31.6455 7.85791 31.7681 7.90938 31.8722 8.01356C31.9752 8.11773 32.0279 8.24028 32.0279 8.38245V13.0641H36.3406V8.38245C36.3406 8.24028 36.3921 8.11773 36.4962 8.01356C36.5992 7.91061 36.723 7.85791 36.8651 7.85791H39.4094Z" fill="#112F70"/>
<path d="M51.8725 18.3474C52.0146 18.3474 52.1372 18.3989 52.2414 18.503C52.3443 18.6072 52.397 18.7298 52.397 18.8719V20.9309C52.397 21.0743 52.3455 21.1968 52.2414 21.2998C52.1372 21.4039 52.0146 21.4554 51.8725 21.4554H42.6661C42.524 21.4554 42.4002 21.4039 42.2972 21.2998C42.1931 21.1968 42.1416 21.073 42.1416 20.9309V8.38245C42.1416 8.24028 42.1931 8.11773 42.2972 8.01356C42.4002 7.91061 42.524 7.85791 42.6661 7.85791H51.7181C51.8602 7.85791 51.9828 7.90938 52.0869 8.01356C52.1899 8.11773 52.2426 8.24028 52.2426 8.38245V10.4414C52.2426 10.5835 52.1911 10.7073 52.0869 10.8103C51.9828 10.9144 51.8602 10.9659 51.7181 10.9659H45.7349V13.064H51.2903C51.4325 13.064 51.5551 13.1155 51.6592 13.2197C51.7622 13.3239 51.8149 13.4464 51.8149 13.5886V15.6475C51.8149 15.7897 51.7634 15.9135 51.6592 16.0164C51.5551 16.1206 51.4325 16.172 51.2903 16.172H45.7349V18.3474H51.8725Z" fill="#112F70"/>
<path d="M61.8174 7.85791C62.076 7.85791 62.2733 7.92899 62.4093 8.07116C62.5454 8.21332 62.6397 8.35671 62.6912 8.49887L66.9255 20.736C66.977 20.8659 67.0027 20.9627 67.0027 21.0277C67.0027 21.1441 66.9598 21.2446 66.8765 21.3292C66.7919 21.4137 66.6914 21.4554 66.575 21.4554H64.1275C63.869 21.4554 63.6839 21.4002 63.5736 21.2899C63.4633 21.1796 63.3959 21.073 63.3702 20.9701L62.826 19.3585H57.6591L57.115 20.9701C57.0892 21.0743 57.0206 21.1809 56.9115 21.2899C56.8012 21.4002 56.6174 21.4554 56.3576 21.4554H53.9101C53.7937 21.4554 53.6932 21.4137 53.6087 21.3292C53.5241 21.2446 53.4824 21.1441 53.4824 21.0277C53.4824 20.9627 53.5082 20.8659 53.5596 20.736L57.7939 8.49887C57.8454 8.35671 57.9397 8.21455 58.0758 8.07116C58.2118 7.92899 58.4091 7.85791 58.6677 7.85791H61.8174ZM58.6714 16.3461H61.8186L60.245 11.6841L58.6714 16.3461Z" fill="#112F70"/>
<path d="M73.8791 7.85791C74.7333 7.85791 75.498 7.9486 76.1709 8.12998C76.8437 8.31136 77.4173 8.58344 77.8903 8.9462C78.3634 9.30896 78.7249 9.77222 78.9774 10.3347C79.2298 10.8985 79.3561 11.5554 79.3561 12.3067C79.3561 13.2785 79.1551 14.0837 78.7543 14.7247C78.3524 15.3656 77.7825 15.8546 77.0447 16.1917L79.4529 20.8144C79.4921 20.8916 79.5117 20.964 79.5117 21.0277C79.5117 21.1441 79.4688 21.2446 79.3855 21.3292C79.3009 21.4137 79.2004 21.4554 79.084 21.4554H76.4429C76.1843 21.4554 75.9993 21.3966 75.889 21.2801C75.7787 21.1637 75.6917 21.0473 75.6267 20.9309L73.471 16.7738H71.6841V20.9309C71.6841 21.0743 71.6314 21.1968 71.5285 21.2998C71.4255 21.4039 71.3018 21.4554 71.1596 21.4554H68.6154C68.4732 21.4554 68.3494 21.4039 68.2465 21.2998C68.1423 21.1968 68.0908 21.073 68.0908 20.9309V8.38245C68.0908 8.24028 68.1423 8.11773 68.2465 8.01356C68.3494 7.91061 68.4732 7.85791 68.6154 7.85791H73.8791ZM71.6841 13.7442H73.8791C74.4232 13.7442 74.873 13.6413 75.2297 13.4329C75.5851 13.2258 75.764 12.8508 75.764 12.3067C75.764 11.7625 75.5863 11.3875 75.2297 11.1804C74.873 10.9733 74.4232 10.8691 73.8791 10.8691H71.6841V13.7442Z" fill="#112F70"/>
<path d="M92.4092 18.3474C92.5514 18.3474 92.6752 18.3989 92.7781 18.503C92.8811 18.6072 92.9337 18.7298 92.9337 18.8719V20.9309C92.9337 21.0743 92.8811 21.1968 92.7781 21.2998C92.6752 21.4039 92.5514 21.4554 92.4092 21.4554H81.9982C81.856 21.4554 81.7322 21.4039 81.6293 21.2998C81.5251 21.1968 81.4736 21.073 81.4736 20.9309V18.9688C81.4736 18.7874 81.5055 18.6452 81.5704 18.541C81.6354 18.4381 81.7004 18.3535 81.7653 18.2886L87.9813 10.9659H82.193C82.0509 10.9659 81.9271 10.9144 81.8241 10.8103C81.72 10.7073 81.6685 10.5835 81.6685 10.4414V8.38245C81.6685 8.24028 81.72 8.11773 81.8241 8.01356C81.9271 7.91061 82.0509 7.85791 82.193 7.85791H92.2156C92.3577 7.85791 92.4815 7.90938 92.5845 8.01356C92.6874 8.11773 92.7401 8.24028 92.7401 8.38245V10.3446C92.7401 10.5909 92.6556 10.8041 92.4877 10.9855L86.2729 18.3474H92.4092Z" fill="#2AACEF"/>
<path d="M102.355 7.85791C102.614 7.85791 102.811 7.92899 102.947 8.07116C103.083 8.21332 103.178 8.35671 103.229 8.49887L107.464 20.736C107.515 20.8659 107.541 20.9627 107.541 21.0277C107.541 21.1441 107.498 21.2446 107.415 21.3292C107.33 21.4137 107.229 21.4554 107.113 21.4554H104.666C104.407 21.4554 104.222 21.4002 104.112 21.2899C104.001 21.1796 103.934 21.073 103.908 20.9701L103.364 19.3585H98.1972L97.653 20.9701C97.6273 21.0743 97.5587 21.1809 97.4496 21.2899C97.3393 21.4002 97.1555 21.4554 96.8956 21.4554H94.4482C94.3318 21.4554 94.2313 21.4137 94.1467 21.3292C94.0622 21.2446 94.0205 21.1441 94.0205 21.0277C94.0205 20.9627 94.0462 20.8659 94.0977 20.736L98.332 8.49887C98.3835 8.35671 98.4778 8.21455 98.6139 8.07116C98.7499 7.92899 98.9472 7.85791 99.2058 7.85791H102.355ZM99.2083 16.3461H102.355L100.782 11.6841L99.2083 16.3461Z" fill="#2AACEF"/>
<path d="M114.709 7.85791C115.537 7.85791 116.282 7.95228 116.942 8.13979C117.602 8.3273 118.166 8.61285 118.632 8.994C119.098 9.37637 119.457 9.85188 119.709 10.4218C119.962 10.9916 120.088 11.6522 120.088 12.4035C120.088 13.1682 119.962 13.8349 119.709 14.4036C119.457 14.9735 119.098 15.4465 118.632 15.8215C118.166 16.1978 117.602 16.4821 116.942 16.6757C116.281 16.8706 115.536 16.9674 114.709 16.9674H112.222V20.9296C112.222 21.073 112.17 21.1956 112.067 21.2985C111.964 21.4027 111.84 21.4542 111.698 21.4542H109.153C109.011 21.4542 108.887 21.4027 108.785 21.2985C108.68 21.1956 108.629 21.0718 108.629 20.9296V8.38245C108.629 8.24028 108.68 8.11773 108.785 8.01356C108.887 7.91061 109.011 7.85791 109.153 7.85791H114.709ZM112.222 13.9379H114.611C115.155 13.9379 115.605 13.8178 115.961 13.5788C116.317 13.3398 116.496 12.9476 116.496 12.4035C116.496 11.8593 116.318 11.4684 115.961 11.2282C115.605 10.9892 115.155 10.8691 114.611 10.8691H112.222V13.9379Z" fill="#2AACEF"/>
<path fill-rule="evenodd" clip-rule="evenodd" d="M121.333 7.83455H121.67C121.699 7.83455 121.726 7.82474 121.749 7.80636C121.773 7.78798 121.792 7.76224 121.807 7.72915C121.822 7.69606 121.829 7.65807 121.829 7.61395C121.829 7.57106 121.821 7.53306 121.803 7.49997C121.786 7.46811 121.764 7.44237 121.74 7.42399C121.714 7.40561 121.687 7.39703 121.659 7.39703H121.333V7.83455ZM120.964 8.6716V7.07471H121.683C121.758 7.07471 121.828 7.09064 121.892 7.12128C121.955 7.15192 122.01 7.19359 122.057 7.24506C122.104 7.29653 122.14 7.35536 122.166 7.41909C122.192 7.48404 122.205 7.549 122.205 7.61518C122.205 7.68136 122.194 7.74386 122.173 7.80268C122.153 7.86151 122.122 7.91543 122.084 7.96201C122.045 8.0098 121.998 8.04779 121.944 8.07843L122.295 8.67283H121.888L121.582 8.15809H121.332V8.67283H120.964V8.6716Z" fill="#112F70"/>
<path fill-rule="evenodd" clip-rule="evenodd" d="M121.529 6.64475C122.208 6.64475 122.758 7.19503 122.758 7.87398C122.758 8.55294 122.208 9.10321 121.529 9.10321C120.85 9.10321 120.3 8.55294 120.3 7.87398C120.3 7.19503 120.85 6.64475 121.529 6.64475ZM121.529 6.40332C122.342 6.40332 123 7.06144 123 7.87398C123 8.68652 122.342 9.34464 121.529 9.34464C120.717 9.34464 120.059 8.68652 120.059 7.87398C120.059 7.06144 120.717 6.40332 121.529 6.40332Z" fill="#112F70"/>
</g>
</g>
<defs>
<clipPath id="clip0_2602_15834">
<rect width="125" height="31" fill="white"/>
</clipPath>
</defs>
</svg>
